<?xml version="1.0" encoding="UTF-8" standalone="no"?>
<!-- Created with Inkscape (http://www.inkscape.org/) -->

<svg
   xmlns:dc="http://purl.org/dc/elements/1.1/"
   xmlns:cc="http://creativecommons.org/ns#"
   xmlns:rdf="http://www.w3.org/1999/02/22-rdf-syntax-ns#"
   xmlns:svg="http://www.w3.org/2000/svg"
   xmlns="http://www.w3.org/2000/svg"
   xmlns:sodipodi="http://sodipodi.sourceforge.net/DTD/sodipodi-0.dtd"
   xmlns:inkscape="http://www.inkscape.org/namespaces/inkscape"
   width="512"
   height="512"
   id="svg2"
   version="1.1"
   inkscape:version="0.48.4 r9939"
   sodipodi:docname="New document 1">
  <defs
     id="defs4">
    <filter
       id="filter4343"
       inkscape:collect="always"
       color-interpolation-filters="sRGB">
      <feGaussianBlur
         id="feGaussianBlur4345"
         stdDeviation="1.520178"
         inkscape:collect="always" />
    </filter>
    <filter
       id="filter4212"
       inkscape:collect="always"
       color-interpolation-filters="sRGB">
      <feGaussianBlur
         id="feGaussianBlur4214"
         stdDeviation="0.99022651"
         inkscape:collect="always" />
    </filter>
    <filter
       height="1.1199999"
       y="-0.059999973"
       width="1.1200001"
       x="-0.060000025"
       id="filter4482"
       inkscape:collect="always"
       color-interpolation-filters="sRGB">
      <feGaussianBlur
         id="feGaussianBlur4484"
         stdDeviation="1.3440924"
         inkscape:collect="always" />
    </filter>
    <filter
       height="1.12"
       y="-0.059999999"
       width="1.12"
       x="-0.059999999"
       id="filter4205"
       inkscape:collect="always"
       color-interpolation-filters="sRGB">
      <feGaussianBlur
         id="feGaussianBlur4207"
         stdDeviation="2.4"
         inkscape:collect="always" />
    </filter>
    <inkscape:path-effect
       is_visible="true"
       id="path-effect4206"
       effect="spiro" />
    <inkscape:path-effect
       is_visible="true"
       id="path-effect4210"
       effect="spiro" />
    <inkscape:path-effect
       is_visible="true"
       id="path-effect4214"
       effect="spiro" />
    <inkscape:path-effect
       is_visible="true"
       id="path-effect4218"
       effect="spiro" />
    <inkscape:path-effect
       is_visible="true"
       id="path-effect4230"
       effect="spiro" />
    <inkscape:path-effect
       is_visible="true"
       id="path-effect4234"
       effect="spiro" />
    <inkscape:path-effect
       is_visible="true"
       id="path-effect4275"
       effect="spiro" />
    <inkscape:path-effect
       is_visible="true"
       id="path-effect4283"
       effect="spiro" />
    <inkscape:path-effect
       is_visible="true"
       id="path-effect4287"
       effect="spiro" />
    <inkscape:path-effect
       is_visible="true"
       id="path-effect4291"
       effect="spiro" />
    <inkscape:path-effect
       is_visible="true"
       id="path-effect4295"
       effect="spiro" />
    <inkscape:path-effect
       is_visible="true"
       id="path-effect4299"
       effect="spiro" />
    <inkscape:path-effect
       is_visible="true"
       id="path-effect4303"
       effect="spiro" />
    <inkscape:path-effect
       is_visible="true"
       id="path-effect4307"
       effect="spiro" />
    <inkscape:path-effect
       is_visible="true"
       id="path-effect4311"
       effect="spiro" />
    <inkscape:path-effect
       is_visible="true"
       id="path-effect4315"
       effect="spiro" />
    <inkscape:path-effect
       is_visible="true"
       id="path-effect4319"
       effect="spiro" />
    <inkscape:path-effect
       is_visible="true"
       id="path-effect4323"
       effect="spiro" />
    <inkscape:path-effect
       is_visible="true"
       id="path-effect4327"
       effect="spiro" />
    <inkscape:path-effect
       is_visible="true"
       id="path-effect4331"
       effect="spiro" />
    <inkscape:path-effect
       is_visible="true"
       id="path-effect4335"
       effect="spiro" />
    <inkscape:path-effect
       is_visible="true"
       id="path-effect4343"
       effect="spiro" />
    <inkscape:path-effect
       is_visible="true"
       id="path-effect4347"
       effect="spiro" />
    <inkscape:path-effect
       is_visible="true"
       id="path-effect4359"
       effect="spiro" />
    <inkscape:path-effect
       is_visible="true"
       id="path-effect4363"
       effect="spiro" />
    <inkscape:path-effect
       is_visible="true"
       id="path-effect4367"
       effect="spiro" />
    <inkscape:path-effect
       is_visible="true"
       id="path-effect4352"
       effect="spiro" />
    <inkscape:path-effect
       is_visible="true"
       id="path-effect4364"
       effect="spiro" />
    <inkscape:path-effect
       is_visible="true"
       id="path-effect4419"
       effect="spiro" />
    <inkscape:path-effect
       is_visible="true"
       id="path-effect4427"
       effect="spiro" />
    <inkscape:path-effect
       is_visible="true"
       id="path-effect4431"
       effect="spiro" />
    <inkscape:path-effect
       is_visible="true"
       id="path-effect4435"
       effect="spiro" />
    <filter
       id="filter3893"
       inkscape:collect="always"
       color-interpolation-filters="sRGB">
      <feGaussianBlur
         id="feGaussianBlur3895"
         stdDeviation="1"
         inkscape:collect="always" />
    </filter>
  </defs>
  <sodipodi:namedview
     id="base"
     pagecolor="#ffffff"
     bordercolor="#666666"
     borderopacity="1.0"
     inkscape:pageopacity="0.0"
     inkscape:pageshadow="2"
     inkscape:zoom="1.7753906"
     inkscape:cx="256"
     inkscape:cy="256.00001"
     inkscape:document-units="px"
     inkscape:current-layer="layer1"
     showgrid="false"
     showborder="false"
     inkscape:window-width="1855"
     inkscape:window-height="1056"
     inkscape:window-x="65"
     inkscape:window-y="37"
     inkscape:window-maximized="1" />
  <metadata
     id="metadata7">
    <rdf:RDF>
      <cc:Work
         rdf:about="">
        <dc:format>image/svg+xml</dc:format>
        <dc:type
           rdf:resource="http://purl.org/dc/dcmitype/StillImage" />
        <dc:title></dc:title>
      </cc:Work>
    </rdf:RDF>
  </metadata>
  <g
     inkscape:label="Layer 1"
     inkscape:groupmode="layer"
     id="layer1"
     transform="translate(0,-540.36218)">
    <g
       id="g4065"
       inkscape:export-filename="/home/jonathan/Documents/dev/opus/beacon-frontend/app/src/main/res/drawable/ic_beacon_launcher.png"
       inkscape:export-xdpi="90"
       inkscape:export-ydpi="90"
       transform="matrix(3.7647059,0,0,3.7647059,-857.47686,-1886.2975)">
      <circle
         transform="translate(207.76729,-251.78071)"
         r="68"
         cy="964.36218"
         cx="88"
         id="path3338-4"
         style="fill:#00962a;fill-opacity:1;stroke:none"
         sodipodi:cx="88"
         sodipodi:cy="964.36218"
         sodipodi:rx="68"
         sodipodi:ry="68"
         d="m 156,964.36218 c 0,37.55532 -30.44464,68.00002 -68,68.00002 -37.555363,0 -68,-30.4447 -68,-68.00002 0,-37.55536 30.444637,-68 68,-68 37.55536,0 68,30.44464 68,68 z" />
      <circle
         transform="translate(207.76729,-251.78071)"
         r="48"
         cy="966.36218"
         cx="90"
         id="path3338-4-7-8"
         style="opacity:0.25;fill:#2f2f2f;fill-opacity:1;stroke:none;filter:url(#filter4205)"
         sodipodi:cx="90"
         sodipodi:cy="966.36218"
         sodipodi:rx="48"
         sodipodi:ry="48"
         d="m 138,966.36218 c 0,26.50967 -21.49033,48.00002 -48,48.00002 -26.509668,0 -48,-21.49035 -48,-48.00002 0,-26.50967 21.490332,-48 48,-48 26.50967,0 48,21.49033 48,48 z" />
      <circle
         transform="translate(207.76729,-251.78071)"
         r="48"
         cy="964.36218"
         cx="88"
         id="path3338-4-7"
         style="fill:#00b434;fill-opacity:1;stroke:none"
         sodipodi:cx="88"
         sodipodi:cy="964.36218"
         sodipodi:rx="48"
         sodipodi:ry="48"
         d="m 136,964.36218 c 0,26.50967 -21.49033,48.00002 -48,48.00002 -26.509668,0 -48,-21.49035 -48,-48.00002 0,-26.50967 21.490332,-48 48,-48 26.50967,0 48,21.49033 48,48 z" />
      <path
         inkscape:connector-curvature="0"
         id="path4342-4"
         d="m 296.6501,687.69885 a 26.881771,26.881769 0 0 0 -26.88281,26.88281 26.881771,26.881769 0 0 0 26.88281,26.88091 26.881771,26.881769 0 0 0 26.88086,-26.88091 26.881771,26.881769 0 0 0 -26.88086,-26.88281 z m -4.90039,4.94336 c 2.76493,0.0968 4.63555,1.40226 3.9668,3.94336 0.0101,0.98614 1.6892,-0.0739 2.47656,0.11914 0.73057,0.17912 1.39569,1.75787 2.2207,1.09765 0.92706,0.60257 -1.18814,-3.90201 2.20704,-2.17578 1.94696,0.98991 8.468,3.00215 7.97265,4.29688 -0.30954,0.43655 -8.84298,2.61835 -9.10742,12.98242 -0.0651,2.55107 1.27258,2.07614 -0.0645,2.55078 -0.94138,-0.1485 -0.55626,-2.36645 -1.53711,-2.31445 -2.80465,0.14864 -4.09507,3.2069 -2.85351,6.04297 0.23159,0.52903 1.25334,1.07851 2.13476,1.6582 0.59545,-1.1185 1.83131,-2.25572 4.01563,-3.43555 1.2964,-0.39347 7.02282,-1.33714 9.74609,3.72266 5.70941,5.47858 0.0887,7.93875 -1.64453,9.08398 -2.55939,4.1355 -12.08687,10.09433 -11.16016,7.5293 1.19702,-3.31324 2.43774,-6.29197 1.13281,-9.51758 -1.36009,-2.15492 -2.84629,-4.19123 -2.46875,-6.26562 -1.3275,-0.30385 -2.79214,-0.80126 -3.77929,-1.08399 -5.28458,-1.51351 -10.33622,-9.57364 -11.97656,-11.78711 -0.12142,-2.40921 -6.44078,0.2752 -5.42969,-3.9707 0.33382,-8.44123 8.86993,-12.66143 14.14844,-12.47656 z m 22.91602,10.33789 c 1.2376,-0.13179 2.6414,1.07464 3.90039,4.69531 1.33973,3.30666 1.34685,5.76716 0.0879,8.40625 -1.98124,2.11084 -1.99038,0.92605 -6.42383,-4.28711 -2.2045,-1.76128 -0.28718,-8.52452 2.43555,-8.81445 z"
         style="opacity:0.25;fill:#2f2f2f;fill-opacity:1;stroke:none;filter:url(#filter4482)" />
      <path
         inkscape:connector-curvature="0"
         id="path4342"
         d="m 294.6501,685.69885 a 26.881771,26.881769 0 0 0 -26.88281,26.88281 26.881771,26.881769 0 0 0 26.88281,26.88086 26.881771,26.881769 0 0 0 26.88086,-26.88086 26.881771,26.881769 0 0 0 -26.88086,-26.88281 z m -4.90039,4.94336 c 2.76493,0.0968 4.63555,1.40226 3.9668,3.94336 0.0101,0.98614 1.6892,-0.0739 2.47656,0.11914 0.73057,0.17912 1.39569,1.75787 2.2207,1.09765 0.92706,0.60257 -1.18814,-3.90201 2.20704,-2.17578 1.94696,0.98991 8.468,3.00215 7.97265,4.29688 -0.30954,0.43655 -8.84298,2.61835 -9.10742,12.98242 -0.0651,2.55107 1.27258,2.07614 -0.0645,2.55078 -0.94138,-0.1485 -0.55626,-2.36645 -1.53711,-2.31445 -2.80465,0.14864 -4.09507,3.2069 -2.85351,6.04297 0.23159,0.52903 1.25334,1.07851 2.13476,1.6582 0.59545,-1.1185 1.83131,-2.25572 4.01563,-3.43555 1.2964,-0.39347 7.02282,-1.33714 9.74609,3.72266 5.70941,5.47858 0.0887,7.93875 -1.64453,9.08398 -2.55939,4.1355 -12.08687,10.09433 -11.16016,7.5293 1.19702,-3.31324 2.43774,-6.29197 1.13281,-9.51758 -1.36009,-2.15492 -2.84629,-4.19123 -2.46875,-6.26562 -1.3275,-0.30385 -2.79214,-0.80126 -3.77929,-1.08399 -5.28458,-1.51351 -10.33622,-9.57364 -11.97656,-11.78711 -0.12142,-2.40921 -6.44078,0.2752 -5.42969,-3.9707 0.33382,-8.44123 8.86993,-12.66143 14.14844,-12.47656 z m 22.91602,10.33789 c 1.2376,-0.13179 2.6414,1.07464 3.90039,4.69531 1.33973,3.30666 1.34685,5.76716 0.0879,8.40625 -1.98124,2.11084 -1.99038,0.92605 -6.42383,-4.28711 -2.2045,-1.76128 -0.28718,-8.52452 2.43555,-8.81445 z"
         style="fill:#ffffff;fill-opacity:1;stroke:none" />
    </g>
  </g>
</svg>
