<?xml version="1.0" encoding="UTF-8" standalone="no"?>
<!-- Created with Inkscape (http://www.inkscape.org/) -->

<svg
   xmlns:dc="http://purl.org/dc/elements/1.1/"
   xmlns:cc="http://creativecommons.org/ns#"
   xmlns:rdf="http://www.w3.org/1999/02/22-rdf-syntax-ns#"
   xmlns:svg="http://www.w3.org/2000/svg"
   xmlns="http://www.w3.org/2000/svg"
   xmlns:sodipodi="http://sodipodi.sourceforge.net/DTD/sodipodi-0.dtd"
   xmlns:inkscape="http://www.inkscape.org/namespaces/inkscape"
   width="176"
   height="176"
   id="svg2"
   version="1.1"
   inkscape:version="0.48.4 r9939"
   inkscape:export-filename="/home/jonathan/Documents/dev/opus/beacon-frontend/app/src/main/res/drawable/beacon_launcher_gps.png"
   inkscape:export-xdpi="261.82001"
   inkscape:export-ydpi="261.82001"
   sodipodi:docname="New document 1">
  <defs
     id="defs4">
    <filter
       height="1.1199999"
       y="-0.059999973"
       width="1.1200001"
       x="-0.060000025"
       id="filter4482"
       inkscape:collect="always"
       color-interpolation-filters="sRGB">
      <feGaussianBlur
         id="feGaussianBlur4484"
         stdDeviation="1.3440924"
         inkscape:collect="always" />
    </filter>
    <filter
       height="1.12"
       y="-0.059999999"
       width="1.12"
       x="-0.059999999"
       id="filter4321"
       inkscape:collect="always"
       color-interpolation-filters="sRGB">
      <feGaussianBlur
         id="feGaussianBlur4323"
         stdDeviation="3.4"
         inkscape:collect="always" />
    </filter>
    <filter
       height="1.12"
       y="-0.059999999"
       width="1.12"
       x="-0.059999999"
       id="filter4205"
       inkscape:collect="always"
       color-interpolation-filters="sRGB">
      <feGaussianBlur
         id="feGaussianBlur4207"
         stdDeviation="2.4"
         inkscape:collect="always" />
    </filter>
    <inkscape:path-effect
       is_visible="true"
       id="path-effect4206"
       effect="spiro" />
    <inkscape:path-effect
       is_visible="true"
       id="path-effect4210"
       effect="spiro" />
    <inkscape:path-effect
       is_visible="true"
       id="path-effect4214"
       effect="spiro" />
    <inkscape:path-effect
       is_visible="true"
       id="path-effect4218"
       effect="spiro" />
    <inkscape:path-effect
       is_visible="true"
       id="path-effect4230"
       effect="spiro" />
    <inkscape:path-effect
       is_visible="true"
       id="path-effect4234"
       effect="spiro" />
    <inkscape:path-effect
       is_visible="true"
       id="path-effect4275"
       effect="spiro" />
    <inkscape:path-effect
       is_visible="true"
       id="path-effect4283"
       effect="spiro" />
    <inkscape:path-effect
       is_visible="true"
       id="path-effect4287"
       effect="spiro" />
    <inkscape:path-effect
       is_visible="true"
       id="path-effect4291"
       effect="spiro" />
    <inkscape:path-effect
       is_visible="true"
       id="path-effect4295"
       effect="spiro" />
    <inkscape:path-effect
       is_visible="true"
       id="path-effect4299"
       effect="spiro" />
    <inkscape:path-effect
       is_visible="true"
       id="path-effect4303"
       effect="spiro" />
    <inkscape:path-effect
       is_visible="true"
       id="path-effect4307"
       effect="spiro" />
    <inkscape:path-effect
       is_visible="true"
       id="path-effect4311"
       effect="spiro" />
    <inkscape:path-effect
       is_visible="true"
       id="path-effect4315"
       effect="spiro" />
    <inkscape:path-effect
       is_visible="true"
       id="path-effect4319"
       effect="spiro" />
    <inkscape:path-effect
       is_visible="true"
       id="path-effect4323"
       effect="spiro" />
    <inkscape:path-effect
       is_visible="true"
       id="path-effect4327"
       effect="spiro" />
    <inkscape:path-effect
       is_visible="true"
       id="path-effect4331"
       effect="spiro" />
    <inkscape:path-effect
       is_visible="true"
       id="path-effect4335"
       effect="spiro" />
    <inkscape:path-effect
       is_visible="true"
       id="path-effect4343"
       effect="spiro" />
    <inkscape:path-effect
       is_visible="true"
       id="path-effect4347"
       effect="spiro" />
    <inkscape:path-effect
       is_visible="true"
       id="path-effect4359"
       effect="spiro" />
    <inkscape:path-effect
       is_visible="true"
       id="path-effect4363"
       effect="spiro" />
    <inkscape:path-effect
       is_visible="true"
       id="path-effect4367"
       effect="spiro" />
    <inkscape:path-effect
       is_visible="true"
       id="path-effect4352"
       effect="spiro" />
    <inkscape:path-effect
       is_visible="true"
       id="path-effect4364"
       effect="spiro" />
    <inkscape:path-effect
       is_visible="true"
       id="path-effect4419"
       effect="spiro" />
    <inkscape:path-effect
       is_visible="true"
       id="path-effect4427"
       effect="spiro" />
    <inkscape:path-effect
       is_visible="true"
       id="path-effect4431"
       effect="spiro" />
    <inkscape:path-effect
       is_visible="true"
       id="path-effect4435"
       effect="spiro" />
  </defs>
  <sodipodi:namedview
     id="base"
     pagecolor="#ffffff"
     bordercolor="#666666"
     borderopacity="1.0"
     inkscape:pageopacity="0.0"
     inkscape:pageshadow="2"
     inkscape:zoom="5.1647727"
     inkscape:cx="88"
     inkscape:cy="88"
     inkscape:document-units="px"
     inkscape:current-layer="layer1"
     showgrid="false"
     showborder="false"
     inkscape:window-width="1855"
     inkscape:window-height="1056"
     inkscape:window-x="65"
     inkscape:window-y="37"
     inkscape:window-maximized="1" />
  <metadata
     id="metadata7">
    <rdf:RDF>
      <cc:Work
         rdf:about="">
        <dc:format>image/svg+xml</dc:format>
        <dc:type
           rdf:resource="http://purl.org/dc/dcmitype/StillImage" />
        <dc:title></dc:title>
      </cc:Work>
    </rdf:RDF>
  </metadata>
  <g
     inkscape:label="Layer 1"
     inkscape:groupmode="layer"
     id="layer1"
     transform="translate(0,-876.36218)">
    <g
       id="layer1-1"
       inkscape:label="Layer 1">
      <circle
         r="88"
         cy="964.36218"
         cx="88"
         id="path3338"
         style="fill:#007822;fill-opacity:1;stroke:none"
         sodipodi:cx="88"
         sodipodi:cy="964.36218"
         sodipodi:rx="88"
         sodipodi:ry="88"
         d="m 176,964.36218 c 0,48.60102 -39.39894,88.00002 -88,88.00002 -48.601058,0 -88,-39.399 -88,-88.00002 0,-48.60106 39.398942,-88 88,-88 48.60106,0 88,39.39894 88,88 z" />
      <circle
         r="68"
         cy="966.36133"
         cx="90"
         id="path3338-4-4"
         style="opacity:0.25;fill:#2f2f2f;fill-opacity:1;stroke:none;filter:url(#filter4321)"
         sodipodi:cx="90"
         sodipodi:cy="966.36133"
         sodipodi:rx="68"
         sodipodi:ry="68"
         d="m 158,966.36133 c 0,37.55537 -30.44464,67.99997 -68,67.99997 -37.555363,0 -68,-30.4446 -68,-67.99997 0,-37.55536 30.444637,-68 68,-68 37.55536,0 68,30.44464 68,68 z" />
      <circle
         r="68"
         cy="964.36218"
         cx="88"
         id="path3338-4"
         style="fill:#00962a;fill-opacity:1;stroke:none"
         sodipodi:cx="88"
         sodipodi:cy="964.36218"
         sodipodi:rx="68"
         sodipodi:ry="68"
         d="m 156,964.36218 c 0,37.55532 -30.44464,68.00002 -68,68.00002 -37.555363,0 -68,-30.4447 -68,-68.00002 0,-37.55536 30.444637,-68 68,-68 37.55536,0 68,30.44464 68,68 z" />
      <circle
         r="48"
         cy="966.36218"
         cx="90"
         id="path3338-4-7-8"
         style="opacity:0.25;fill:#2f2f2f;fill-opacity:1;stroke:none;filter:url(#filter4205)"
         sodipodi:cx="90"
         sodipodi:cy="966.36218"
         sodipodi:rx="48"
         sodipodi:ry="48"
         d="m 138,966.36218 c 0,26.50967 -21.49033,48.00002 -48,48.00002 -26.509668,0 -48,-21.49035 -48,-48.00002 0,-26.50967 21.490332,-48 48,-48 26.50967,0 48,21.49033 48,48 z" />
      <circle
         r="48"
         cy="964.36218"
         cx="88"
         id="path3338-4-7"
         style="fill:#00b434;fill-opacity:1;stroke:none"
         sodipodi:cx="88"
         sodipodi:cy="964.36218"
         sodipodi:rx="48"
         sodipodi:ry="48"
         d="m 136,964.36218 c 0,26.50967 -21.49033,48.00002 -48,48.00002 -26.509668,0 -48,-21.49035 -48,-48.00002 0,-26.50967 21.490332,-48 48,-48 26.50967,0 48,21.49033 48,48 z" />
      <path
         inkscape:connector-curvature="0"
         id="path4342-4"
         d="M 88.882813,939.47956 A 26.881771,26.881769 0 0 0 62,966.36237 26.881771,26.881769 0 0 0 88.882813,993.24328 26.881771,26.881769 0 0 0 115.76367,966.36237 26.881771,26.881769 0 0 0 88.882813,939.47956 z m -4.900391,4.94336 c 2.764933,0.0968 4.635547,1.40226 3.966797,3.94336 0.01008,0.98614 1.689204,-0.0739 2.476562,0.11914 0.730572,0.17912 1.39569,1.75787 2.220704,1.09765 0.927058,0.60257 -1.188143,-3.90201 2.207031,-2.17578 1.946967,0.98991 8.468004,3.00215 7.972654,4.29688 -0.30954,0.43655 -8.842978,2.61835 -9.10742,12.98242 -0.06509,2.55107 1.272584,2.07614 -0.06445,2.55078 -0.941381,-0.1485 -0.556262,-2.36645 -1.537109,-2.31445 -2.804652,0.14864 -4.095075,3.2069 -2.853516,6.04297 0.231595,0.52903 1.253345,1.07851 2.134766,1.6582 0.595451,-1.1185 1.831307,-2.25572 4.015625,-3.43555 1.296401,-0.39347 7.022824,-1.33714 9.746094,3.72266 5.70941,5.47858 0.0887,7.93875 -1.64453,9.08398 -2.55939,4.1355 -12.086865,10.09433 -11.160158,7.5293 1.197018,-3.31324 2.437739,-6.29197 1.132812,-9.51758 -1.360089,-2.15492 -2.846293,-4.19123 -2.46875,-6.26562 -1.327506,-0.30385 -2.792143,-0.80126 -3.779296,-1.08399 -5.284574,-1.51351 -10.336219,-9.57364 -11.976563,-11.78711 -0.121412,-2.40921 -6.440776,0.2752 -5.429687,-3.9707 0.333823,-8.44123 8.869928,-12.66143 14.148437,-12.47656 z m 22.916018,10.33789 c 1.2376,-0.13179 2.6414,1.07464 3.90039,4.69531 1.33973,3.30666 1.34685,5.76716 0.0879,8.40625 -1.98124,2.11084 -1.99038,0.92605 -6.42383,-4.28711 -2.2045,-1.76128 -0.28718,-8.52452 2.43555,-8.81445 z"
         style="opacity:0.25;fill:#2f2f2f;fill-opacity:1;stroke:none;filter:url(#filter4482)" />
      <path
         inkscape:connector-curvature="0"
         id="path4342"
         d="M 86.882813,937.47956 A 26.881771,26.881769 0 0 0 60,964.36237 26.881771,26.881769 0 0 0 86.882813,991.24323 26.881771,26.881769 0 0 0 113.76367,964.36237 26.881771,26.881769 0 0 0 86.882813,937.47956 z m -4.900391,4.94336 c 2.764933,0.0968 4.635547,1.40226 3.966797,3.94336 0.01008,0.98614 1.689204,-0.0739 2.476562,0.11914 0.730572,0.17912 1.39569,1.75787 2.220704,1.09765 0.927058,0.60257 -1.188143,-3.90201 2.207031,-2.17578 1.946967,0.98991 8.468004,3.00215 7.972654,4.29688 -0.30954,0.43655 -8.842978,2.61835 -9.10742,12.98242 -0.06509,2.55107 1.272584,2.07614 -0.06445,2.55078 -0.941381,-0.1485 -0.556262,-2.36645 -1.537109,-2.31445 -2.804652,0.14864 -4.095075,3.2069 -2.853516,6.04297 0.231595,0.52903 1.253345,1.07851 2.134766,1.6582 0.595451,-1.1185 1.831307,-2.25572 4.015625,-3.43555 1.296401,-0.39347 7.022824,-1.33714 9.746094,3.72266 5.70941,5.47858 0.0887,7.93875 -1.64453,9.08398 -2.559392,4.1355 -12.086865,10.09433 -11.160158,7.5293 1.197018,-3.31324 2.437739,-6.29197 1.132812,-9.51758 -1.360089,-2.15492 -2.846293,-4.19123 -2.46875,-6.26562 -1.327506,-0.30385 -2.792143,-0.80126 -3.779296,-1.08399 -5.284574,-1.51351 -10.336219,-9.57364 -11.976563,-11.78711 -0.121412,-2.40921 -6.440776,0.2752 -5.429687,-3.9707 0.333823,-8.44123 8.869928,-12.66143 14.148437,-12.47656 z m 22.916018,10.33789 c 1.2376,-0.13179 2.6414,1.07464 3.90039,4.69531 1.33973,3.30666 1.34685,5.76716 0.0879,8.40625 -1.98124,2.11084 -1.99038,0.92605 -6.42383,-4.28711 -2.2045,-1.76128 -0.28718,-8.52452 2.43555,-8.81445 z"
         style="fill:#ffffff;fill-opacity:1;stroke:none" />
    </g>
  </g>
</svg>
